<?xml version="1.0" standalone="no"?>
<!DOCTYPE svg PUBLIC "-//W3C//DTD SVG 20010904//EN"
 "http://www.w3.org/TR/2001/REC-SVG-20010904/DTD/svg10.dtd">
<svg version="1.0" xmlns="http://www.w3.org/2000/svg"
 width="595.000000pt" height="557.000000pt" viewBox="0 0 595.000000 557.000000"
 preserveAspectRatio="xMidYMid meet">

<g transform="translate(0.000000,557.000000) scale(0.100000,-0.100000)"
fill="#000000" stroke="none">
<path d="M2765 5042 c-119 -10 -167 -61 -117 -123 17 -20 22 -21 62 -11 l43
11 -6 -172 c-4 -95 -12 -264 -19 -376 l-11 -204 23 -19 c25 -20 54 -17 83 11
14 13 18 43 25 150 l7 134 43 15 c64 21 155 110 194 189 41 84 46 183 11 249
-56 106 -182 161 -338 146z m191 -149 c30 -19 54 -69 54 -111 0 -42 -57 -148
-94 -177 -45 -34 -60 -33 -52 6 3 17 6 95 6 172 l0 140 30 -6 c16 -4 42 -14
56 -24z"/>
<path d="M2254 5030 c-49 -20 -60 -51 -74 -202 -7 -79 -15 -170 -19 -203 l-6
-60 -104 125 c-164 198 -165 200 -195 200 -27 0 -76 -39 -76 -61 0 -10 35
-127 161 -533 31 -97 37 -131 28 -136 -16 -10 -4 -41 14 -35 9 4 19 -12 31
-52 22 -71 41 -93 77 -93 34 0 59 24 59 57 0 16 7 27 20 30 22 6 33 32 24 57
-5 12 -16 16 -37 14 l-30 -3 -68 204 c-38 113 -67 206 -65 208 1 2 38 -37 82
-87 78 -90 112 -112 143 -93 30 19 40 58 52 193 8 90 15 128 20 115 5 -11 38
-144 74 -295 45 -189 70 -279 82 -287 41 -31 93 -1 93 53 0 42 -196 862 -210
880 -14 15 -44 17 -76 4z"/>
<path d="M3413 4959 c-19 -7 -23 -16 -23 -48 0 -38 10 -51 57 -76 2 -1 -17
-50 -40 -109 -35 -87 -50 -111 -75 -126 -26 -16 -32 -26 -32 -53 0 -18 4 -37
10 -43 6 -6 2 -32 -11 -74 -12 -37 -23 -107 -26 -162 -5 -91 -4 -99 20 -140
37 -64 94 -93 182 -93 108 0 180 42 198 116 15 60 -52 83 -103 34 -30 -28 -89
-42 -134 -31 -37 9 -60 59 -52 113 8 63 48 193 58 193 5 0 36 -11 69 -25 74
-30 104 -21 119 34 12 45 -8 81 -47 81 -32 0 -103 21 -103 30 0 11 87 220 94
228 8 8 108 -34 178 -75 66 -39 101 -42 122 -11 30 42 21 65 -40 104 -125 80
-364 156 -421 133z"/>
<path d="M4140 4655 c-29 -34 -1 -105 41 -105 36 0 30 -24 -27 -108 -78 -115
-246 -339 -322 -430 -67 -80 -77 -115 -43 -146 41 -37 69 -19 169 104 134 167
145 163 107 -38 -14 -75 -28 -150 -31 -165 -12 -58 58 -89 104 -47 12 12 22
32 22 47 0 14 12 86 27 159 l27 134 33 0 c92 0 217 84 259 175 59 125 4 261
-143 357 -111 73 -195 97 -223 63z m222 -212 c36 -39 48 -66 48 -108 0 -47
-25 -89 -71 -121 -42 -29 -128 -44 -177 -32 l-33 9 52 72 c28 40 71 102 96
140 25 37 49 67 53 67 3 0 18 -12 32 -27z"/>
<path d="M1344 4620 c-97 -39 -91 -227 16 -469 l40 -93 -20 -25 c-41 -53 -8
-120 53 -109 31 5 33 4 77 -76 63 -114 96 -158 121 -158 23 0 69 42 69 64 0 8
-23 52 -51 98 -28 46 -63 105 -76 133 l-26 50 73 67 c41 38 80 68 87 68 20 0
114 -133 103 -144 -6 -6 -10 -18 -10 -29 0 -14 6 -18 27 -15 20 2 30 -3 39
-19 33 -68 98 -86 130 -37 16 23 16 28 1 59 -38 81 -226 322 -379 488 -124
135 -202 176 -274 147z m195 -240 c42 -47 81 -88 86 -92 6 -5 -13 -29 -45 -58
-87 -80 -87 -80 -115 -18 -28 62 -75 220 -75 252 0 13 3 26 6 29 14 13 68 -30
143 -113z"/>
<path d="M2654 4342 c-31 -21 -25 -72 10 -72 42 0 59 36 30 64 -17 18 -24 19
-40 8z"/>
<path d="M3149 4131 c-18 -15 -20 -21 -10 -39 22 -40 80 -17 66 27 -8 28 -31
33 -56 12z"/>
<path d="M815 4071 c-52 -24 -89 -64 -116 -125 -48 -108 -1 -249 128 -386 83
-89 154 -140 238 -175 33 -13 61 -28 63 -33 2 -6 -26 -53 -61 -105 l-65 -95
61 29 c33 15 86 34 116 40 31 7 58 14 60 15 2 2 -8 21 -22 43 -15 22 -28 45
-29 51 -2 6 23 12 63 14 184 10 249 158 153 350 -52 103 -124 146 -167 98 -26
-28 -21 -50 23 -99 37 -43 70 -120 70 -165 0 -11 -11 -30 -25 -43 -19 -20 -34
-25 -72 -25 -201 1 -492 307 -422 443 34 66 83 84 139 51 35 -21 77 -12 92 21
37 81 -118 147 -227 96z"/>
<path d="M2680 4044 c-11 -12 -10 -18 3 -32 16 -15 18 -15 34 0 13 14 14 20 3
32 -7 9 -16 16 -20 16 -4 0 -13 -7 -20 -16z"/>
<path d="M4711 4044 c-154 -41 -262 -151 -278 -281 -4 -40 1 -67 27 -139 46
-129 46 -129 15 -160 -22 -22 -33 -26 -67 -21 -73 10 -110 68 -89 145 16 60
-3 92 -54 92 -44 0 -64 -29 -72 -104 -13 -127 72 -235 200 -252 65 -9 125 12
173 60 68 68 69 109 4 292 -29 80 -18 125 43 181 118 109 327 108 327 0 0 -54
-28 -93 -106 -147 -41 -28 -75 -57 -75 -63 -4 -42 22 -77 58 -77 56 0 198 122
229 195 35 85 6 200 -65 249 -69 48 -163 59 -270 30z"/>
<path d="M2282 3968 c-5 -7 -21 -56 -35 -108 -40 -150 -59 -192 -198 -435
-151 -263 -195 -335 -207 -335 -5 0 -19 12 -33 26 l-24 26 23 -6 c27 -9 29 8
4 26 -26 18 -92 107 -108 143 l-12 30 -10 -25 c-5 -14 -27 -48 -47 -74 -35
-46 -36 -50 -19 -59 46 -26 126 -114 151 -166 15 -31 28 -58 30 -60 8 -11 45
37 138 179 183 278 289 476 340 634 l33 98 -5 -353 c-2 -238 -9 -395 -20 -479
-16 -133 -57 -293 -97 -384 -31 -70 -153 -255 -173 -263 -8 -3 -81 15 -161 40
-194 60 -186 59 -234 32 l-41 -23 49 -8 c27 -3 123 -29 214 -56 l165 -50 45
16 c61 22 155 20 207 -4 24 -10 65 -40 92 -65 36 -33 65 -50 103 -61 71 -19
78 -18 78 9 0 28 -9 41 -38 56 -18 10 -22 19 -20 44 l3 32 135 5 c124 5 133 6
108 19 -16 8 -28 18 -28 23 0 8 46 -15 116 -58 12 -7 26 -9 34 -4 10 6 -14 68
-110 271 -212 456 -263 609 -310 942 -17 116 -29 211 -28 212 2 2 68 -108 147
-244 324 -555 323 -553 589 -928 159 -226 165 -233 198 -233 19 0 34 4 34 9 0
5 -68 105 -151 222 -197 279 -266 381 -381 569 -128 210 -318 535 -318 545 0
7 24 3 75 -12 43 -12 3 11 -47 27 -70 23 -78 45 -8 24 28 -8 57 -13 63 -11 7
2 -21 13 -60 25 -40 12 -75 27 -78 32 -8 13 -5 13 45 -5 48 -17 203 -32 160
-15 -17 7 16 8 105 5 165 -7 148 9 -32 30 -156 18 -230 38 -108 29 44 -3 148
-14 230 -25 83 -11 205 -22 272 -26 157 -8 172 -16 219 -121 72 -161 213 -409
359 -631 51 -78 250 -350 327 -446 16 -20 14 -24 -83 -125 -86 -90 -98 -106
-83 -115 9 -5 30 -20 48 -32 17 -13 44 -31 60 -40 15 -10 55 -35 87 -55 33
-21 66 -38 74 -38 28 0 15 29 -32 69 -37 31 -45 43 -36 52 9 9 24 4 62 -20 27
-18 55 -39 61 -47 16 -18 50 -18 50 0 0 8 -24 31 -52 52 -29 21 -55 39 -57 41
-2 2 -2 5 1 8 2 3 33 -15 68 -40 71 -50 75 -51 83 -31 4 10 -12 28 -45 51
l-51 37 23 21 c12 12 24 17 26 12 4 -11 95 -12 112 -1 5 3 15 -1 22 -9 8 -10
30 -15 62 -15 44 0 49 2 38 15 -16 19 -3 19 30 0 36 -21 37 -20 43 36 6 48 4
53 -23 76 -32 26 -40 46 -15 37 26 -10 16 9 -27 53 -42 43 -42 57 0 27 12 -8
22 -10 22 -5 0 6 -11 18 -24 26 -14 9 -32 28 -42 42 -16 25 -16 26 2 18 11 -4
26 -7 34 -7 8 0 36 -9 62 -20 60 -27 73 -16 30 23 -35 31 -32 37 8 14 24 -13
25 -13 41 33 l15 47 -40 44 c-23 25 -33 39 -23 32 31 -24 32 -2 1 32 -17 17
-37 41 -45 52 -13 17 -10 17 24 -4 49 -30 47 -17 -3 26 -47 40 -51 56 -12 47
26 -6 26 -6 -13 35 l-39 41 34 -6 35 -7 -48 49 c-53 55 -127 161 -127 184 0 8
-17 -14 -37 -49 -39 -66 -131 -171 -149 -171 -6 0 -19 18 -29 41 l-19 41 -18
-36 c-10 -20 -22 -36 -26 -36 -9 0 -82 113 -82 128 0 21 -18 13 -24 -10 -3
-13 -22 -45 -42 -71 -34 -47 -36 -48 -55 -31 -33 30 -157 221 -164 253 -7 32
-25 52 -25 28 0 -22 -62 -137 -74 -137 -12 0 -110 171 -227 394 -42 80 -83
145 -97 154 -18 12 -63 18 -161 23 -129 7 -537 57 -647 80 -29 5 -81 28 -117
49 -72 44 -80 46 -95 28z m153 -108 c18 -8 17 -9 -7 -9 -16 -1 -28 4 -28 9 0
12 8 12 35 0z m-72 -100 c4 -36 3 -48 -3 -35 -8 19 -14 103 -6 94 2 -2 6 -29
9 -59z m124 44 c-3 -3 -12 -4 -19 -1 -8 3 -5 6 6 6 11 1 17 -2 13 -5z m40 -10
c-3 -3 -12 -4 -19 -1 -8 3 -5 6 6 6 11 1 17 -2 13 -5z m40 -10 c-3 -3 -12 -4
-19 -1 -8 3 -5 6 6 6 11 1 17 -2 13 -5z m50 -10 c-3 -3 -12 -4 -19 -1 -8 3 -5
6 6 6 11 1 17 -2 13 -5z m-237 -127 c0 -18 -2 -19 -10 -7 -13 20 -13 43 0 35
6 -3 10 -16 10 -28z m10 -78 c0 -6 -4 -7 -10 -4 -5 3 -10 11 -10 16 0 6 5 7
10 4 6 -3 10 -11 10 -16z m10 -108 c0 -11 -4 -9 -15 5 -8 10 -15 25 -15 33 0
11 4 9 15 -5 8 -10 15 -25 15 -33z m10 -64 c0 -18 -2 -17 -20 6 -11 14 -20 31
-20 38 0 8 7 6 20 -6 11 -10 20 -27 20 -38z m10 -76 c0 -24 -49 40 -50 63 0
16 5 13 25 -14 14 -19 25 -41 25 -49z m18 -77 c-3 -15 -10 -11 -36 25 -43 59
-41 74 4 30 22 -23 35 -43 32 -55z m27 -93 c3 -13 4 -25 3 -27 -7 -6 -88 107
-88 122 0 22 77 -64 85 -95z m-46 6 c11 -18 31 -43 45 -56 14 -14 26 -28 26
-33 0 -19 84 -218 189 -446 61 -133 111 -244 111 -247 0 -12 -23 -2 -91 43
-51 33 -81 61 -96 89 -35 62 -28 62 32 3 30 -29 57 -51 60 -48 3 3 -30 39 -73
79 -43 41 -85 86 -92 99 -13 24 -12 24 6 11 10 -8 36 -31 56 -50 21 -19 40
-32 43 -29 3 3 -28 35 -70 72 -41 37 -75 75 -75 84 0 12 8 8 30 -13 17 -16 30
-23 30 -17 0 7 -6 15 -14 18 -20 8 -72 75 -80 104 -6 21 -2 19 28 -15 50 -57
44 -31 -9 40 -54 72 -60 103 -10 55 19 -19 35 -29 35 -24 0 5 -20 30 -45 54
-28 28 -45 53 -45 68 0 23 1 23 26 -7 14 -17 30 -31 36 -31 5 0 -9 22 -31 49
-48 58 -55 87 -9 45 34 -32 29 -18 -13 36 -29 37 -48 100 -31 100 6 0 19 -15
31 -33z m-594 -87 c3 -5 2 -10 -4 -10 -5 0 -13 5 -16 10 -3 6 -2 10 4 10 5 0
13 -4 16 -10z m2415 -8 c0 -4 -5 -13 -12 -20 -7 -7 -16 -12 -20 -12 -13 0 -9
28 5 33 19 8 27 8 27 -1z m-190 -752 c0 -5 -4 -10 -9 -10 -6 0 -13 5 -16 10
-3 6 1 10 9 10 9 0 16 -4 16 -10z"/>
<path d="M3632 3748 c-30 -30 1 -73 36 -51 23 14 25 29 7 47 -20 19 -27 20
-43 4z"/>
<path d="M3980 3736 c0 -10 9 -16 21 -16 24 0 21 23 -4 28 -10 2 -17 -3 -17
-12z"/>
<path d="M1892 3694 c-30 -21 -26 -58 6 -62 22 -3 52 13 52 28 0 4 -8 17 -17
29 -17 20 -19 21 -41 5z"/>
<path d="M4043 3484 c-14 -38 41 -71 66 -40 7 8 10 24 6 36 -8 25 -62 28 -72
4z"/>
<path d="M2170 3402 c-84 -146 -217 -331 -311 -429 -47 -50 -51 -56 -44 -90
l6 -36 36 34 c43 42 158 194 205 274 49 80 162 314 156 320 -2 2 -24 -30 -48
-73z"/>
<path d="M4863 3407 c-26 -53 -167 -204 -221 -237 -23 -14 -44 -31 -46 -37 -7
-16 32 -17 71 -2 l28 10 -24 -25 c-13 -14 -41 -37 -62 -52 -39 -27 -55 -62
-23 -50 9 3 28 9 42 12 l27 7 -29 -31 c-26 -28 -28 -34 -17 -59 6 -15 20 -39
30 -52 l18 -24 31 44 c47 69 140 153 222 203 41 25 80 46 87 46 20 0 17 11
-42 125 -30 59 -55 118 -55 131 0 39 -15 35 -37 -9z"/>
<path d="M1385 3250 c3 -5 8 -10 11 -10 2 0 4 5 4 10 0 6 -5 10 -11 10 -5 0
-7 -4 -4 -10z"/>
<path d="M1181 3200 c-341 -92 -571 -447 -571 -883 0 -191 47 -340 145 -460
175 -215 491 -235 741 -46 l64 48 0 -64 c0 -86 -26 -282 -51 -379 -40 -155
-118 -279 -196 -312 -42 -18 -127 -18 -161 0 -38 20 -78 65 -96 108 -18 43
-21 143 -5 185 16 43 69 92 106 99 42 8 49 19 29 49 -50 76 -207 80 -287 8
-68 -62 -84 -102 -84 -218 0 -89 3 -105 27 -151 55 -105 158 -162 309 -171
223 -14 432 85 516 244 54 102 67 163 67 313 0 136 -10 215 -45 369 l-19 84
21 56 c30 81 36 178 14 224 -29 61 -79 63 -115 5 -17 -28 -20 -51 -20 -141 l0
-107 -41 -45 c-82 -89 -229 -135 -369 -115 -129 18 -205 68 -258 168 -49 92
-65 176 -65 337 0 215 49 397 145 541 60 89 112 137 198 178 60 29 73 31 170
31 96 0 109 -2 151 -27 215 -127 114 -512 -125 -472 -118 19 -199 118 -182
222 5 33 4 33 -17 19 -12 -8 -33 -29 -45 -48 -21 -30 -23 -43 -20 -114 3 -65
10 -91 33 -133 50 -91 126 -144 234 -161 272 -44 478 196 406 474 -33 125
-126 230 -245 277 -81 31 -258 35 -359 8z"/>
<path d="M4923 3062 c-173 -62 -279 -247 -337 -589 l-23 -138 -82 -6 c-69 -5
-90 -11 -124 -35 -89 -62 -113 -178 -48 -236 21 -19 42 -28 64 -28 45 0 50 7
25 40 -51 70 27 180 128 180 l27 0 -7 -72 c-20 -209 -68 -455 -103 -522 -52
-100 -113 -141 -205 -134 -65 5 -99 25 -135 78 -30 44 -31 119 -2 167 41 66
128 84 176 37 22 -23 25 -32 21 -80 -5 -58 2 -65 43 -44 55 30 67 164 18 216
-36 38 -72 54 -126 54 -97 -1 -179 -65 -208 -162 -19 -65 -19 -101 0 -165 30
-102 125 -165 249 -166 101 0 173 24 233 77 106 96 156 254 178 564 4 50 10
92 14 92 17 0 53 -35 76 -73 42 -72 56 -127 66 -257 10 -139 27 -209 61 -260
46 -68 123 -99 208 -85 38 6 96 42 86 53 -3 2 -12 -1 -21 -8 -21 -17 -78 -5
-114 25 -16 14 -37 44 -47 67 -17 40 -19 83 -22 555 l-3 512 25 22 c14 12 23
26 20 31 -8 12 -221 10 -229 -2 -4 -6 3 -18 14 -28 20 -16 21 -26 21 -327 1
-170 1 -314 0 -320 0 -5 -10 10 -23 35 -12 24 -43 67 -69 94 l-48 50 0 72 c0
39 5 118 10 175 20 201 53 317 114 400 89 121 302 143 341 35 14 -40 -11 -80
-52 -84 -27 -3 -34 2 -49 29 -16 31 -17 32 -30 14 -8 -10 -14 -36 -14 -56 0
-84 94 -133 177 -93 110 54 112 202 4 279 -37 26 -50 29 -134 32 -70 3 -104
-1 -144 -15z"/>
<path d="M2810 2945 c0 -22 77 -158 187 -328 119 -184 218 -306 235 -289 14
14 -11 58 -107 192 -45 63 -116 167 -158 230 -74 113 -156 215 -157 195z"/>
<path d="M2176 2825 c-33 -68 -62 -114 -149 -239 -30 -44 -33 -56 -13 -56 31
0 107 83 140 153 32 68 72 204 63 213 -2 2 -21 -30 -41 -71z"/>
<path d="M3841 2433 c-39 -38 -71 -72 -71 -76 0 -5 14 -7 32 -5 26 2 40 15 79
68 26 36 48 68 48 73 2 18 -21 2 -88 -60z"/>
<path d="M1173 2339 c-103 -8 -230 -37 -284 -65 -24 -12 -29 -19 -23 -37 3
-12 7 -23 8 -24 1 -1 37 9 80 22 123 40 255 58 435 59 138 2 164 5 172 18 8
14 1 17 -43 22 -105 10 -245 13 -345 5z"/>
<path d="M2069 2315 c-62 -20 -138 -90 -176 -162 -105 -197 -76 -478 64 -618
115 -115 277 -113 387 5 86 91 121 194 121 350 0 84 -5 120 -24 179 -63 190
-221 295 -372 246z m120 -79 c88 -94 100 -526 18 -670 -31 -55 -62 -64 -96
-27 -90 97 -108 469 -31 649 33 76 68 91 109 48z"/>
<path d="M2493 2313 c-4 -10 -1 -19 6 -21 8 -3 22 -13 32 -23 18 -18 19 -40
19 -384 l0 -364 -30 -23 c-58 -43 -44 -48 135 -48 138 0 165 2 165 15 0 8 -10
20 -22 26 -13 7 -26 17 -30 23 -4 6 -8 145 -8 309 0 323 1 333 56 376 56 44
122 16 144 -60 6 -19 10 -164 10 -322 l0 -289 -30 -28 c-16 -15 -30 -33 -30
-39 0 -8 52 -11 165 -11 140 0 165 2 165 15 0 8 -5 15 -10 15 -6 0 -22 11 -35
25 l-25 24 0 308 c0 186 -4 323 -11 346 -14 50 -71 113 -116 128 -20 6 -64 12
-99 12 -50 0 -72 -6 -107 -26 -24 -14 -50 -34 -58 -43 -13 -16 -14 -13 -19 27
l-5 44 -128 3 c-113 2 -128 1 -134 -15z"/>
<path d="M2782 2321 c2 -7 7 -12 11 -12 12 1 9 15 -3 20 -7 2 -11 -2 -8 -8z"/>
<path d="M3315 2320 c-4 -6 7 -23 24 -39 l31 -29 0 -366 0 -365 -30 -23 c-58
-43 -44 -48 135 -48 179 0 193 5 135 48 l-30 23 0 300 c0 331 4 355 61 384 54
29 101 18 127 -29 15 -27 17 -71 20 -334 3 -264 1 -307 -13 -328 -8 -13 -22
-24 -30 -24 -8 0 -15 -9 -15 -20 0 -19 7 -20 158 -20 87 0 161 3 165 6 9 9 -4
34 -18 34 -37 0 -40 25 -45 364 -5 330 -5 331 -30 374 -63 110 -236 134 -339
46 l-40 -35 -3 43 -3 43 -127 3 c-81 2 -129 -1 -133 -8z"/>
<path d="M1737 2281 c7 -27 150 -76 170 -60 7 6 13 15 13 19 0 8 -155 60 -177
60 -6 0 -9 -8 -6 -19z"/>
<path d="M1375 2233 c-54 -4 -186 -24 -202 -30 -16 -6 -17 -40 -1 -45 7 -3 53
1 102 8 50 8 130 13 179 14 85 0 87 1 87 24 0 34 -35 40 -165 29z"/>
<path d="M2834 2188 c-24 -11 -51 -54 -41 -64 5 -5 119 -33 140 -34 11 0 8 46
-4 74 -13 27 -45 47 -35 21 7 -19 -3 -19 -23 -1 -12 10 -22 11 -37 4z"/>
<path d="M3675 2174 c-16 -14 -40 -35 -52 -45 -22 -18 -32 -69 -15 -69 14 0
95 57 120 83 21 23 22 26 7 41 -21 21 -24 20 -60 -10z"/>
<path d="M947 2152 c-39 -13 -47 -20 -45 -36 2 -15 10 -20 25 -19 32 4 133 51
133 62 0 15 -57 12 -113 -7z"/>
<path d="M1815 2159 c-8 -12 11 -29 33 -29 19 0 10 34 -10 38 -9 2 -19 -2 -23
-9z"/>
<path d="M3200 2086 c0 -19 6 -24 38 -30 20 -3 54 -6 75 -6 32 0 37 3 37 24 0
20 -6 24 -46 30 -87 12 -104 9 -104 -18z"/>
<path d="M4145 2103 c-11 -2 -44 -11 -72 -19 -49 -13 -53 -17 -53 -44 0 -35 9
-37 71 -15 24 9 72 20 107 25 35 5 66 11 69 14 2 2 0 14 -7 25 -8 17 -20 21
-53 20 -23 -1 -51 -3 -62 -6z"/>
<path d="M4436 2034 c-8 -21 -8 -20 32 -29 28 -6 32 -4 32 13 0 32 -53 45 -64
16z"/>
<path d="M2870 2016 c0 -15 50 -56 69 -56 6 0 11 9 11 21 0 13 -11 25 -35 35
-43 17 -45 17 -45 0z"/>
<path d="M3670 1936 c-60 -21 -65 -25 -68 -54 -2 -18 0 -32 5 -32 27 0 147 40
154 52 5 7 9 23 9 36 0 28 -15 27 -100 -2z"/>
<path d="M3200 1866 c0 -32 2 -34 46 -40 92 -12 104 -9 104 24 0 33 -5 35 -97
44 l-53 5 0 -33z"/>
<path d="M4020 1884 c0 -9 5 -14 12 -12 18 6 21 28 4 28 -9 0 -16 -7 -16 -16z"/>
<path d="M4390 1891 c0 -12 42 -42 49 -36 5 6 -29 45 -41 45 -4 0 -8 -4 -8 -9z"/>
<path d="M3663 1762 c-59 -15 -63 -17 -63 -44 0 -33 -3 -33 103 4 42 15 57 26
57 39 0 22 -12 23 -97 1z"/>
<path d="M4116 1748 l-16 -23 82 -10 c93 -12 98 -11 98 15 0 19 -12 23 -101
36 -41 5 -48 3 -63 -18z"/>
<path d="M3200 1712 c0 -35 6 -37 93 -48 l57 -6 0 29 c0 29 -2 31 -52 37 -29
3 -63 9 -75 12 -20 6 -23 3 -23 -24z"/>
<path d="M4375 1680 c-3 -5 1 -10 10 -10 9 0 13 5 10 10 -3 6 -8 10 -10 10 -2
0 -7 -4 -10 -10z"/>
<path d="M3704 1637 c-28 -20 -50 -43 -52 -55 -4 -27 10 -28 66 -2 38 17 42
22 42 55 0 19 -2 35 -4 35 -2 0 -26 -15 -52 -33z"/>
<path d="M3200 1565 c0 -22 4 -25 40 -25 49 0 52 16 5 36 -45 18 -45 18 -45
-11z"/>
<path d="M4020 1550 c0 -5 5 -10 11 -10 5 0 7 5 4 10 -3 6 -8 10 -11 10 -2 0
-4 -4 -4 -10z"/>
<path d="M1967 1380 c-152 -48 -258 -179 -275 -337 -19 -172 18 -310 106 -396
70 -69 126 -90 253 -95 127 -5 193 11 262 63 70 53 121 155 78 155 -5 0 -40
-31 -78 -69 -57 -58 -77 -72 -126 -86 -72 -21 -121 -14 -181 27 -54 35 -98 88
-129 155 -19 41 -22 65 -22 173 0 112 3 131 26 187 44 103 108 164 196 184 40
10 59 9 106 -5 66 -19 74 -29 52 -62 -25 -39 -17 -102 18 -128 26 -19 30 -19
70 -6 35 13 43 21 51 51 18 71 -48 161 -141 195 -56 19 -196 17 -266 -6z"/>
<path d="M2757 1373 c-8 -15 -46 -104 -85 -198 -39 -93 -106 -255 -149 -359
-58 -140 -83 -190 -96 -192 -35 -5 -47 -13 -47 -33 0 -26 26 -33 115 -29 64 3
70 5 73 25 3 17 -3 24 -23 29 -30 7 -30 19 5 97 l21 47 164 0 165 0 16 -37 c8
-21 18 -52 21 -69 4 -26 1 -33 -16 -39 -26 -8 -27 -31 -2 -45 21 -11 199 -14
225 -4 23 9 20 45 -4 51 -13 3 -28 28 -46 77 -136 360 -228 595 -251 643 -33
69 -63 81 -86 36z m78 -414 c25 -66 43 -124 40 -129 -6 -9 -275 -15 -275 -6 0
6 131 339 138 350 6 11 35 -53 97 -215z"/>
<path d="M3931 1387 c-19 -10 -44 -67 -130 -297 -58 -157 -110 -284 -115 -283
-5 1 -60 114 -121 251 -113 250 -137 297 -165 319 -9 7 -48 12 -97 13 -77 0
-83 -2 -83 -20 0 -12 10 -25 25 -32 l25 -11 0 -353 0 -353 -22 -7 c-30 -9 -40
-25 -26 -41 12 -15 135 -18 157 -4 20 13 6 39 -24 47 l-25 6 0 243 c0 133 -3
258 -6 276 -12 60 12 20 79 -136 170 -395 187 -428 224 -433 13 -2 28 6 41 22
16 21 110 265 224 579 11 32 23 56 25 53 2 -2 1 -139 -3 -305 -5 -227 -10
-301 -19 -301 -23 0 -36 -25 -22 -44 10 -14 28 -16 127 -14 110 3 115 4 118
25 2 14 -4 26 -17 33 -21 10 -21 17 -21 364 l0 353 25 11 c15 7 25 20 25 32 0
19 -6 20 -87 20 -50 0 -98 -6 -112 -13z"/>
<path d="M4216 1377 c-28 -20 -14 -47 24 -47 l30 0 0 -360 0 -360 -26 -6 c-16
-4 -24 -12 -22 -23 3 -14 21 -16 133 -16 123 0 130 1 130 20 0 13 -8 21 -23
23 -22 3 -23 5 -20 120 l3 116 89 17 c203 40 298 136 283 285 -10 99 -61 163
-167 213 -52 24 -66 26 -235 29 -143 3 -184 0 -199 -11z m327 -51 c72 -30 111
-105 110 -212 0 -120 -54 -185 -166 -200 l-44 -6 -6 47 c-9 61 -9 244 -1 324
l7 61 34 0 c18 0 48 -6 66 -14z"/>
<path d="M2000 1095 c-7 -8 -23 -15 -35 -15 -33 0 -49 -24 -38 -57 7 -21 21
-32 54 -43 24 -8 50 -19 57 -23 8 -6 12 -2 12 13 0 12 4 29 9 38 4 9 11 29 15
44 11 46 -45 79 -74 43z"/>
<path d="M1430 1000 c0 -17 186 -98 198 -85 3 3 -5 16 -18 30 -39 41 -180 85
-180 55z"/>
<path d="M2132 950 c-26 -24 -28 -57 -7 -107 8 -19 15 -44 15 -54 0 -23 -3
-23 45 1 22 11 47 20 56 20 26 0 69 39 69 64 0 32 -33 60 -64 52 -20 -5 -25
-1 -30 19 -8 32 -52 34 -84 5z"/>
<path d="M1410 820 c0 -5 9 -10 20 -10 11 0 20 5 20 10 0 6 -9 10 -20 10 -11
0 -20 -4 -20 -10z"/>
<path d="M1530 807 c0 -16 29 -27 78 -27 40 0 42 15 3 23 -16 3 -40 9 -55 13
-19 4 -26 2 -26 -9z"/>
<path d="M1535 683 c-56 -5 -171 -31 -211 -48 -55 -23 -43 -39 25 -32 66 6
251 63 251 78 0 5 -6 8 -12 7 -7 -1 -31 -3 -53 -5z"/>
<path d="M1614 556 c-52 -34 -71 -60 -53 -72 17 -10 100 51 120 89 15 27 -9
21 -67 -17z"/>
<path d="M1895 517 c-10 -25 4 -89 18 -84 18 6 20 43 3 74 -12 24 -15 26 -21
10z"/>
<path d="M1790 478 c-95 -228 -109 -284 -59 -226 33 37 67 119 77 181 9 60 -1
85 -18 45z"/>
</g>
</svg>
